<svg xmlns="http://www.w3.org/2000/svg" width="160" height="140" viewBox="0 0 160 140"><defs><linearGradient id="bgGrad" x1="0%" x2="100%" y1="0%" y2="100%"><stop offset="0%" stop-color="#1a1a2e"/><stop offset="100%" stop-color="#16162a"/></linearGradient><radialGradient id="amberGlow" cx="85%" cy="15%" r="55%"><stop offset="0%" stop-color="#f59e0b" stop-opacity=".22"/><stop offset="60%" stop-color="#f59e0b" stop-opacity=".06"/><stop offset="100%" stop-color="#f59e0b" stop-opacity="0"/></radialGradient><linearGradient id="playGrad" x1="0%" x2="100%" y1="0%" y2="100%"><stop offset="0%" stop-color="#fff"/><stop offset="100%" stop-color="#fcd34d"/></linearGradient><linearGradient id="borderAccent" x1="0%" x2="100%" y1="0%" y2="0%"><stop offset="0%" stop-color="#f59e0b" stop-opacity="0"/><stop offset="30%" stop-color="#f59e0b" stop-opacity=".6"/><stop offset="70%" stop-color="#f59e0b" stop-opacity=".6"/><stop offset="100%" stop-color="#f59e0b" stop-opacity="0"/></linearGradient></defs><rect width="160" height="140" fill="url(#bgGrad)" rx="20"/><rect width="160" height="140" fill="url(#amberGlow)" rx="20"/><g stroke="#f59e0b" stroke-opacity=".04" stroke-width="1"><line x1="0" x2="160" y1="35" y2="35"/><line x1="0" x2="160" y1="70" y2="70"/><line x1="0" x2="160" y1="105" y2="105"/><line x1="40" x2="40" y1="0" y2="115"/><line x1="80" x2="80" y1="0" y2="115"/><line x1="120" x2="120" y1="0" y2="115"/></g><rect width="120" height="2" x="20" y="113" fill="url(#borderAccent)" rx="1"/><polygon fill="url(#playGrad)" points="58 42 112 72 58 102"/><text x="80" y="132" fill="#f8fafc" font-family="'Syne', 'Inter', system-ui, sans-serif" font-size="13" font-weight="700" letter-spacing=".08em" text-anchor="middle">STORYFORGE</text></svg>