<svg xmlns="http://www.w3.org/2000/svg" viewBox="0 0 512 512"><defs><linearGradient id="bgGradient" x1="0%" x2="100%" y1="0%" y2="100%"><stop offset="0%" style="stop-color:#6366f1"/><stop offset="50%" style="stop-color:#8b5cf6"/><stop offset="100%" style="stop-color:#06b6d4"/></linearGradient><linearGradient id="glowGradient" x1="0%" x2="100%" y1="0%" y2="100%"><stop offset="0%" style="stop-color:#00d2ff;stop-opacity:.8"/><stop offset="100%" style="stop-color:#a855f7;stop-opacity:.8"/></linearGradient><filter id="glow" width="200%" height="200%" x="-50%" y="-50%"><feGaussianBlur result="coloredBlur" stdDeviation="8"/><feMerge><feMergeNode in="coloredBlur"/><feMergeNode in="SourceGraphic"/></feMerge></filter></defs><circle cx="256" cy="256" r="240" fill="url(#bgGradient)" filter="url(#glow)"/><g fill="none" stroke="#fff" stroke-linecap="round" stroke-width="12"><rect width="232" height="272" x="140" y="120" fill="rgba(0,0,0,0.3)" rx="20"/><rect width="24" height="32" x="155" y="140" fill="#fff" rx="4"/><rect width="24" height="32" x="155" y="190" fill="#fff" rx="4"/><rect width="24" height="32" x="155" y="240" fill="#fff" rx="4"/><rect width="24" height="32" x="155" y="290" fill="#fff" rx="4"/><rect width="24" height="32" x="155" y="340" fill="#fff" rx="4"/><rect width="24" height="32" x="333" y="140" fill="#fff" rx="4"/><rect width="24" height="32" x="333" y="190" fill="#fff" rx="4"/><rect width="24" height="32" x="333" y="240" fill="#fff" rx="4"/><rect width="24" height="32" x="333" y="290" fill="#fff" rx="4"/><rect width="24" height="32" x="333" y="340" fill="#fff" rx="4"/><path fill="#fff" stroke="none" d="M235 200 L310 256 L235 312 Z"/><path fill="#00d2ff" stroke="none" d="M280 150 L250 190 L275 190 L255 230 L295 180 L270 180 Z"/></g><circle cx="256" cy="256" r="245" fill="none" stroke="url(#glowGradient)" stroke-width="4" opacity=".6"/></svg>